<svg id="Capa_1" enable-background="new 0 0 512 512" height="512" viewBox="0 0 512 512" width="512" xmlns="http://www.w3.org/2000/svg"><g><path d="m241 150h30v30h-30z"/><path d="m241 210h30v30h-30z"/><path d="m241 270h30v30h-30z"/><path d="m344.685 75c0-47.018-22.07-67.557-25.697-75l-62.988 55.082-62.988-55.082c-3.944 8.095-25.697 27.424-25.697 75 0 47.018 22.07 67.555 25.697 75l62.988-55.082 62.988 55.082c3.944-8.095 25.697-27.426 25.697-75z"/><path d="m0 120 256 392-109.307-392z"/><path d="m256 512 256-392h-146.693z"/></g></svg>